<?xml version="1.0" encoding="utf-8"?>
<!-- Generator: Adobe Illustrator 24.1.0, SVG Export Plug-In . SVG Version: 6.00 Build 0)  -->
<svg version="1.1" id="Layer_1" xmlns="http://www.w3.org/2000/svg" xmlns:xlink="http://www.w3.org/1999/xlink" x="0px" y="0px"
	 viewBox="0 0 360 360" style="enable-background:new 0 0 360 360;" xml:space="preserve">
<style type="text/css">
	.st0{fill:#48B7E4;}
	.st1{fill:#FFFFFF;}
</style>
<g>
	<circle class="st0" cx="180" cy="180" r="179"/>
</g>
<g>
	<path class="st1" d="M232.0169,184.201c-10.8816,11.5657-23.1706,20.2823-35.2054,26.5605c-0.757,0.3946-1.2599,1.1763-1.35,2.0651
		l-1.9683,19.3628c-0.0595,0.5862-0.2578,1.1858-0.6525,1.6035l-30.1455,32.0415c-0.9538,1.0134-2.5471,0.9617-3.5005-0.0517
		c-0.7462-0.7931-0.9787-2.0576-0.5009-3.0576l16.1947-33.9495c0.1983-0.4138,0.2848-0.8793,0.2559-1.3448l-0.2758-4.3469
		c-0.1027-1.6341-1.5951-2.7529-3.0858-2.3238c-3.0893,0.8908-6.1135,1.6628-8.8318,2.1111
		c-0.7662,0.1284-1.5574-0.1303-2.1071-0.7107l-1.031-1.0977l-7.1665-7.6191l-7.3593-7.8201l-6.9701-7.4103l-1.0832-1.1494
		c-0.5461-0.5805-0.7894-1.4157-0.6723-2.2262c0.4146-2.9215,1.152-6.1841,2.0024-9.5195c0.4001-1.5805-0.6507-3.1609-2.1863-3.274
		l-4.1709-0.3065c-0.4414-0.0345-0.8904,0.067-1.2869,0.2835l-31.8581,17.3415c-0.9444,0.5134-2.1107,0.3429-2.8584-0.454
		l-0.1463-0.1552c-0.9533-1.0115-0.8183-2.59,0.1352-3.6036l30.1478-32.0432c0.3928-0.4176,0.856-0.7299,1.4075-0.797l18.4461-2.232
		c0.8309-0.0977,1.5536-0.6437,1.9231-1.4406c5.8977-12.7169,14.032-25.7212,24.8395-37.2101
		c35.3637-37.5857,86.452-44.2238,93.5592-36.67C273.6241,92.3108,267.3787,146.6155,232.0169,184.201z M230.0376,123.5743
		c-5.9372-6.3086-15.5622-6.3086-21.4995,0c-5.9354,6.3086-5.9354,16.5389,0,22.8496c5.9373,6.3086,15.5623,6.3086,21.4995,0
		C235.973,140.1132,235.973,129.883,230.0376,123.5743z"/>
	<path class="st1" d="M147.4409,218.8498c0,0-1.0075,12.8586-6.6545,18.6461c-5.6452,5.7858-21.6004,2.5979-27.1844,7.6747
		c-0.3749,0.341-0.5659,0.4942-0.5966,0.4866L113,245.6553v-0.0019c-0.009-0.0364,0.1352-0.2395,0.456-0.6379
		c4.7783-5.935,1.7771-22.8917,7.2206-28.8938c5.4451-6.0002,17.543-7.073,17.543-7.073l-0.31-0.3314l-4.1799-4.4408
		c0,0-23.8859,2.1149-34.6318,13.9622c-10.7498,11.8471-4.8271,45.3235-14.2573,57.0403c-0.6346,0.7893-0.9192,1.1896-0.9031,1.2548
		l0.002,0.0096l0.0089,0.0019c0.0632,0.0172,0.4417-0.2835,1.1824-0.9597c11.0236-10.0234,42.5194-3.7281,53.6657-15.1519
		c11.1463-11.4238,13.138-36.8116,13.138-36.8116l-3.8735-4.1151L147.4409,218.8498z"/>
</g>
</svg>
