<?xml version="1.0" encoding="utf-8"?>
<!-- Generator: Adobe Illustrator 21.0.0, SVG Export Plug-In . SVG Version: 6.00 Build 0)  -->
<svg version="1.1" id="Layer_1" xmlns="http://www.w3.org/2000/svg" xmlns:xlink="http://www.w3.org/1999/xlink" x="0px" y="0px"
	 viewBox="0 0 150 150" style="enable-background:new 0 0 150 150;" xml:space="preserve">
<style type="text/css">
	.st0{fill:#f5b324;}
	.st1{fill:#A3C5E8;}
	.st2{fill:none;stroke:#FFFFFF;stroke-width:7;stroke-miterlimit:10;}
	.st3{fill:#FFFFFF;}
	.st4{fill:#FFFFFF;stroke:#f5b324;stroke-width:6;stroke-miterlimit:10;}
</style>
<circle class="st0" cx="75" cy="75" r="75"/>
<path class="st1" d="M68.9,34.6C68.9,34.6,68.9,34.6,68.9,34.6c0.7-0.1,1.4-0.1,2.1-0.1C70.3,34.7,69.6,34.6,68.9,34.6z"/>
<path class="st1" d="M75.2,34.6C75.2,34.6,75.2,34.6,75.2,34.6c-0.7,0.1-1.4,0.1-2.1,0C73.8,34.6,74.5,34.6,75.2,34.6z"/>
<circle class="st2" cx="57.6" cy="62.2" r="35.5"/>
<path class="st3" d="M55.1,72.4h-0.8c-1.7,0-3.1-1.4-3.1-3.1V41.7c0-1.7,1.4-3.1,3.1-3.1h0.8c1.7,0,3.1,1.4,3.1,3.1v27.5
	C58.3,71,56.9,72.4,55.1,72.4z"/>
<path class="st3" d="M74,72.4H54.3c-1.7,0-3.1-1.4-3.1-3.1v-0.8c0-1.7,1.4-3.1,3.1-3.1H74c1.7,0,3.1,1.4,3.1,3.1v0.8
	C77.1,71,75.7,72.4,74,72.4z"/>
<path class="st4" d="M88,65.6l-20.5,35.5c-4.2,7.4,1.1,16.5,9.6,16.5h41c8.5,0,13.8-9.2,9.6-16.5l-20.5-35.5
	C102.9,58.3,92.3,58.3,88,65.6z"/>
<path class="st0" d="M98.1,97.1h-0.8c-1.7,0-3.1-1.4-3.1-3.1V73.2c0-1.7,1.4-3.1,3.1-3.1h0.8c1.7,0,3.1,1.4,3.1,3.1V94
	C101.2,95.7,99.8,97.1,98.1,97.1z"/>
<circle class="st0" cx="97.7" cy="105.3" r="3.6"/>
</svg>
