<?xml version="1.0" encoding="utf-8"?>
<!-- Generator: Adobe Illustrator 20.1.0, SVG Export Plug-In . SVG Version: 6.00 Build 0)  -->
<svg version="1.1" id="Layer_1" xmlns="http://www.w3.org/2000/svg" xmlns:xlink="http://www.w3.org/1999/xlink" x="0px" y="0px"
	 viewBox="0 0 150 150" style="enable-background:new 0 0 150 150;" xml:space="preserve">
<style type="text/css">
	.st0{fill:#d8292f;}
</style>
<path class="st0" d="M75.6,0.8C34.3,0.8,0.8,34.3,0.8,75.6c0,41.3,33.5,74.8,74.8,74.8c41.3,0,74.8-33.5,74.8-74.8
	C150.4,34.3,116.9,0.8,75.6,0.8z M114.3,90.7c4.7,4.7,4.7,12.3,0,17l-6.6,6.6c-4.7,4.7-12.3,4.7-17,0L75.6,99.2l-15.1,15.1
	c-4.7,4.7-12.3,4.7-17,0l-6.6-6.6c-4.7-4.7-4.7-12.3,0-17L52,75.6L36.9,60.6c-4.7-4.7-4.7-12.3,0-17l6.6-6.6c4.7-4.7,12.3-4.7,17,0
	L75.6,52l15.1-15.1c4.7-4.7,12.3-4.7,17,0l6.6,6.6c4.7,4.7,4.7,12.3,0,17L99.2,75.6L114.3,90.7z"/>
</svg>
