<?xml version="1.0" encoding="utf-8"?>
<!-- Generator: Adobe Illustrator 20.1.0, SVG Export Plug-In . SVG Version: 6.00 Build 0)  -->
<svg version="1.1" id="Layer_1" xmlns="http://www.w3.org/2000/svg" xmlns:xlink="http://www.w3.org/1999/xlink" x="0px" y="0px"
	 viewBox="0 0 150 150" style="enable-background:new 0 0 150 150;" xml:space="preserve">
<style type="text/css">
	.st0{fill:#6E6E6E;}
</style>
<path class="st0" d="M75.4,0C34.1,0,0.6,33.5,0.6,74.8c0,41.3,33.5,74.8,74.8,74.8c41.3,0,74.8-33.5,74.8-74.8
	C150.2,33.5,116.7,0,75.4,0z M65.4,108.2c0,6.2-5.1,11.3-11.3,11.3h-0.5c-6.2,0-11.3-5.1-11.3-11.3V41.5c0-6.2,5.1-11.3,11.3-11.3
	H54c6.2,0,11.3,5.1,11.3,11.3V108.2z M108.7,108.2c0,6.2-5.1,11.3-11.3,11.3h-0.5c-6.2,0-11.3-5.1-11.3-11.3V41.5
	c0-6.2,5.1-11.3,11.3-11.3h0.5c6.2,0,11.3,5.1,11.3,11.3V108.2z"/>
</svg>
