<?xml version="1.0" encoding="utf-8"?>
<!-- Generator: Adobe Illustrator 22.1.0, SVG Export Plug-In . SVG Version: 6.00 Build 0)  -->
<svg version="1.1" id="Layer_1" xmlns="http://www.w3.org/2000/svg" xmlns:xlink="http://www.w3.org/1999/xlink" x="0px" y="0px"
	 viewBox="0 0 87.4065 87.4065" style="enable-background:new 0 0 87.4065 87.4065;" xml:space="preserve">
<style type="text/css">
	.st0{fill:#f17e36;}
	.st1{fill:#FFFFFF;}
	.st2{fill:#F4A055;stroke:#F4A055;stroke-width:6;stroke-miterlimit:10;}
</style>
<circle class="st0" cx="43.7032" cy="43.7032" r="43.7032"/>
<path class="st1" d="M66.0149,29.9459H37.0068c-1.3589,0-2.4892,1.1167-2.4892,2.4891l3.3233,38.0497
	c0,1.3589,1.1167,2.4891,2.4891,2.4891h22.7787c1.3724,0,2.4892-1.1301,2.4892-2.4891L68.504,32.435
	C68.504,31.0626,67.3872,29.9459,66.0149,29.9459z M43.9628,68.6952l-0.3229,0.0269c-0.6459,0.0538-1.2109-0.4306-1.2647-1.063
	l-2.6506-31.6183c-0.0538-0.6458,0.4171-1.2109,1.063-1.2647l0.3229-0.0269c0.6458-0.0539,1.2109,0.4306,1.2647,1.0629
	l2.664,31.6183C45.0929,68.0763,44.6086,68.6414,43.9628,68.6952z M52.8428,67.6054c0,0.6323-0.5247,1.1571-1.1571,1.1571h-0.3364
	c-0.6458,0-1.1705-0.5247-1.1705-1.1571V35.8659c0-0.6323,0.5247-1.1571,1.1705-1.1571h0.3364c0.6324,0,1.1571,0.5247,1.1571,1.1571
	V67.6054z M60.7945,67.6592c-0.0539,0.6324-0.6189,1.1168-1.2647,1.063l-0.3229-0.0269c-0.6459-0.0538-1.1302-0.6189-1.0764-1.2647
	l2.6641-31.6183c0.0538-0.6323,0.6189-1.1168,1.2647-1.0629l0.3229,0.0269c0.6458,0.0539,1.1168,0.6189,1.0629,1.2647
	L60.7945,67.6592z"/>
<g>
	<path class="st1" d="M68.9284,27.5976l0.1442-1.2369c0.2209-1.8945-1.1484-3.6254-3.0429-3.8463l-28.5968-3.3349
		c-1.8946-0.2209-3.6254,1.1484-3.8463,3.0429l-0.1443,1.2369c-0.0128,0.1097-0.019,0.2186-0.0213,0.3269l35.453,4.1344
		C68.8966,27.8147,68.9156,27.7072,68.9284,27.5976z"/>
	<g>
		<path class="st1" d="M52.2508,16.5451c-3.108-0.3633-5.8662,1.2782-6.1488,3.6462c-0.269,2.368,2.0317,4.6015,5.1397,4.9648
			c3.1215,0.3632,5.8797-1.2782,6.1488-3.6462C57.6731,19.1419,55.3588,16.9084,52.2508,16.5451z M51.3898,23.9182
			c-2.4219-0.2825-4.2382-1.8971-4.0499-3.5789c0.2018-1.6953,2.3411-2.8389,4.7629-2.5564
			c2.4353,0.2826,4.2517,1.8837,4.0499,3.579C55.9643,23.0572,53.8251,24.2008,51.3898,23.9182z"/>
	</g>
</g>
<g>
	<path class="st2" d="M42.3808,53.1425h-0.8574c0.0018-0.1495,0.0037-0.2971,0.0075-0.4457
		c0.0574-2.3533,0.0245-5.0827-1.101-7.7031c-1.3671-3.1854-3.4985-5.676-6.3332-7.4041c-0.3939-0.2397-0.4297-0.4052-0.4372-0.6139
		c-0.0056-0.158-0.0103-0.2821,0.5002-0.5989c4.1266-2.5545,6.556-6.2439,7.2189-10.9646c0.188-1.3351,0.172-2.6824,0.157-3.9855
		c-0.0019-0.1532-0.0038-0.3093-0.0056-0.4654h0.8509c0.9082,0,1.6444-0.7362,1.6444-1.6444c0-0.9083-0.7362-1.6454-1.6444-1.6454
		H15.6113c-0.9082,0-1.6444,0.7371-1.6444,1.6454c0,0.9082,0.7362,1.6444,1.6444,1.6444h0.8509
		c-0.0019,0.1561-0.0038,0.3122-0.0056,0.4663c-0.015,1.3022-0.0301,2.6495,0.157,3.9846
		c0.6629,4.7208,3.0923,8.4101,7.2189,10.9656c0.5105,0.3159,0.5058,0.44,0.5002,0.598c-0.0075,0.2087-0.0432,0.3742-0.4372,0.6149
		c-2.8347,1.7272-4.9661,4.2177-6.3332,7.4031c-1.1254,2.6204-1.1584,5.3498-1.101,7.7031
		c0.0038,0.1486,0.0056,0.2962,0.0075,0.4457h-0.8574c-0.9082,0-1.6444,0.7361-1.6444,1.6444c0,0.9083,0.7362,1.6454,1.6444,1.6454
		h26.7695c0.9082,0,1.6444-0.7371,1.6444-1.6454C44.0252,53.8787,43.2891,53.1425,42.3808,53.1425z M39.2697,52.6414
		c-0.0047,0.1664-0.0066,0.3338-0.0084,0.5011H18.7309c-0.0019-0.1674-0.0038-0.3347-0.0084-0.5011
		c-0.0517-2.1136-0.0273-4.5534,0.9186-6.7554c1.1781-2.7444,3.0058-4.8863,5.4316-6.3642
		c0.9722-0.5924,1.4836-1.4225,1.5203-2.4671c0.0564-1.5936-1.1254-2.3251-1.5701-2.6006
		c-3.5286-2.1851-5.6036-5.3329-6.1696-9.3569c-0.1636-1.1649-0.1495-2.3693-0.1345-3.6433
		c0.0019-0.1626,0.0038-0.3272,0.0047-0.4927h20.5453c0.001,0.1655,0.0028,0.3291,0.0047,0.4917
		c0.0151,1.2749,0.0291,2.4784-0.1345,3.6442c-0.566,4.0241-2.641,7.1719-6.1696,9.3569c-0.4447,0.2754-1.6265,1.0069-1.5701,2.6006
		c0.0367,1.0446,0.5481,1.8748,1.5203,2.4671c2.4257,1.478,4.2535,3.6198,5.4316,6.3642
		C39.297,48.0879,39.3214,50.5278,39.2697,52.6414z"/>
	<path class="st2" d="M28.996,29.0798h-6.8273c0.8945,1.4883,2.17,2.7393,3.844,3.7759c0.9378,0.5807,2.2468,1.4266,2.9832,1.9124
		c0.7365-0.4858,2.0455-1.3316,2.9832-1.9124c1.6741-1.0365,2.9495-2.2876,3.8441-3.7759H28.996z"/>
	<path class="st2" d="M36.623,46.6278c-1.1082-2.5204-3.8896-5.8659-7.6269-7.4173c-3.7373,1.5513-6.5187,4.8969-7.6269,7.4173
		c-0.6289,1.4304-0.7663,3.0782-0.7803,4.6343h8.4073h8.4073C37.3893,49.706,37.252,48.0582,36.623,46.6278z"/>
</g>
<polygon class="st0" points="26.8348,9.5989 4.7627,37.7656 36.8301,36.3253 44.6524,16.7694 "/>
<g>
	<path class="st1" d="M41.9462,52.9252h-0.8574c0.0018-0.1495,0.0037-0.2971,0.0075-0.4457
		c0.0574-2.3533,0.0245-5.0827-1.101-7.7031c-1.3671-3.1854-3.4985-5.676-6.3332-7.4041c-0.3939-0.2397-0.4297-0.4052-0.4372-0.6139
		c-0.0056-0.158-0.0103-0.2821,0.5002-0.5989c4.1266-2.5545,6.556-6.2439,7.2189-10.9646c0.188-1.3351,0.172-2.6824,0.157-3.9855
		c-0.0019-0.1532-0.0038-0.3093-0.0056-0.4654h0.8509c0.9082,0,1.6444-0.7362,1.6444-1.6444c0-0.9083-0.7362-1.6454-1.6444-1.6454
		H15.1768c-0.9082,0-1.6444,0.7371-1.6444,1.6454c0,0.9082,0.7362,1.6444,1.6444,1.6444h0.8509
		c-0.0019,0.1561-0.0038,0.3122-0.0056,0.4663c-0.015,1.3022-0.0301,2.6495,0.157,3.9846
		c0.6629,4.7208,3.0923,8.4101,7.2189,10.9656c0.5105,0.3159,0.5058,0.44,0.5002,0.598c-0.0075,0.2087-0.0432,0.3742-0.4372,0.6149
		c-2.8347,1.7272-4.9661,4.2177-6.3332,7.4031c-1.1254,2.6204-1.1584,5.3498-1.101,7.7031
		c0.0038,0.1486,0.0056,0.2962,0.0075,0.4457h-0.8574c-0.9082,0-1.6444,0.7361-1.6444,1.6444c0,0.9083,0.7362,1.6454,1.6444,1.6454
		h26.7695c0.9082,0,1.6444-0.7371,1.6444-1.6454C43.5907,53.6614,42.8545,52.9252,41.9462,52.9252z M38.8351,52.4241
		c-0.0047,0.1664-0.0066,0.3338-0.0084,0.5011H18.2963c-0.0019-0.1674-0.0038-0.3347-0.0084-0.5011
		c-0.0517-2.1136-0.0273-4.5534,0.9186-6.7554c1.1781-2.7444,3.0058-4.8863,5.4316-6.3642
		c0.9722-0.5924,1.4836-1.4225,1.5203-2.4671c0.0564-1.5936-1.1254-2.3251-1.5701-2.6006
		c-3.5286-2.1851-5.6036-5.3329-6.1696-9.3569c-0.1636-1.1649-0.1495-2.3693-0.1345-3.6433
		c0.0019-0.1626,0.0038-0.3272,0.0047-0.4927h20.5453c0.001,0.1655,0.0028,0.3291,0.0047,0.4917
		c0.0151,1.2749,0.0291,2.4784-0.1345,3.6442c-0.566,4.0241-2.641,7.1719-6.1696,9.3569c-0.4447,0.2754-1.6265,1.007-1.5701,2.6006
		c0.0367,1.0446,0.5481,1.8748,1.5203,2.4671c2.4257,1.478,4.2535,3.6198,5.4316,6.3642
		C38.8624,47.8707,38.8868,50.3105,38.8351,52.4241z"/>
	<path class="st1" d="M28.2472,28.6996h-5.3779c0.7046,1.0714,1.7093,1.972,3.028,2.7182c0.7387,0.4181,1.7698,1.027,2.3499,1.3767
		c0.5801-0.3497,1.6112-0.9586,2.3499-1.3767c1.3187-0.7462,2.3234-1.6468,3.028-2.7182H28.2472z"/>
	<path class="st1" d="M34.4931,47.1823c-0.8503-1.9337-2.9842-4.5005-5.8516-5.6907c-2.8673,1.1902-5.0013,3.757-5.8516,5.6907
		c-0.4825,1.0974-0.5879,2.3617-0.5987,3.5555h6.4503h6.4503C35.081,49.5439,34.9756,48.2797,34.4931,47.1823z"/>
</g>
</svg>
