<?xml version="1.0" encoding="utf-8"?>
<!-- Generator: Adobe Illustrator 20.1.0, SVG Export Plug-In . SVG Version: 6.00 Build 0)  -->
<svg version="1.1" id="Layer_1" xmlns="http://www.w3.org/2000/svg" xmlns:xlink="http://www.w3.org/1999/xlink" x="0px" y="0px"
	 viewBox="0 0 150 150" style="enable-background:new 0 0 150 150;" xml:space="preserve">
<style type="text/css">
	.st0{fill:#3db5e6;}
</style>
<path class="st0" d="M74.3-0.1C33-0.1-0.5,33.4-0.5,74.7c0,41.3,33.5,74.8,74.8,74.8c41.3,0,74.8-33.5,74.8-74.8
	C149.1,33.4,115.6-0.1,74.3-0.1z M48.5,78.7c0,5.7-4.7,10.4-10.4,10.4H30c-5.7,0-10.4-4.7-10.4-10.4v-6.6c0-5.7,4.7-10.4,10.4-10.4
	h8.1c5.7,0,10.4,4.7,10.4,10.4V78.7z M88.3,78.7c0,5.7-4.7,10.4-10.4,10.4h-8.1c-5.7,0-10.4-4.7-10.4-10.4v-6.6
	c0-5.7,4.7-10.4,10.4-10.4H78c5.7,0,10.4,4.7,10.4,10.4V78.7z M117.8,89.1h-8.1c-5.7,0-10.4-4.7-10.4-10.4v-6.6
	c0-5.7,4.7-10.4,10.4-10.4h8.1c5.7,0,10.4,4.7,10.4,10.4v6.6C128.2,84.4,123.6,89.1,117.8,89.1z"/>
</svg>
