<?xml version="1.0" encoding="utf-8"?>
<!-- Generator: Adobe Illustrator 21.0.0, SVG Export Plug-In . SVG Version: 6.00 Build 0)  -->
<svg version="1.1" id="Layer_1" xmlns="http://www.w3.org/2000/svg" xmlns:xlink="http://www.w3.org/1999/xlink" x="0px" y="0px"
	 viewBox="0 0 150 150" style="enable-background:new 0 0 150 150;" xml:space="preserve">
<style type="text/css">
	.st0{fill:#3db5e6;}
	.st1{fill:#A3C5E8;}
	.st2{fill:#7ccbeb;}
	.st3{fill:#FFFFFF;}
</style>
<circle class="st0" cx="75" cy="75" r="75"/>
<path class="st1" d="M71.9,31.6C71.9,31.6,71.9,31.6,71.9,31.6c0.7-0.1,1.4-0.1,2.1-0.1C73.3,31.7,72.6,31.6,71.9,31.6z"/>
<path class="st1" d="M78.2,31.6C78.2,31.6,78.2,31.6,78.2,31.6c-0.7,0.1-1.4,0.1-2.1,0C76.8,31.6,77.5,31.6,78.2,31.6z"/>
<path class="st2" d="M34.4,110.8c0-21.9,0-43.9,0-65.8c0.1-0.1,0.1-0.2,0.1-0.3c0.3-1.9,1.1-3.6,2.3-5.2c1.5-1.9,3.3-3.4,5.4-4.6
	c3.6-2.2,7.5-3.5,11.5-4.6c6.4-1.7,12.9-2.4,19.5-2.5c3.9-0.1,7.8,0.1,11.7,0.5c3.6,0.4,7.2,1,10.8,1.8c3.6,0.9,7.2,2.1,10.5,3.8
	c2.6,1.3,5,2.9,6.9,5.2c1.8,2.1,2.7,4.4,2.7,7.2c0,5.7,0,11.3,0,17c0,15.4,0,30.8,0,46.3c0,2.4-0.7,4.5-2.1,6.4
	c-1.5,2.1-3.5,3.6-5.6,4.9c-3.1,1.9-6.5,3.2-9.9,4.2c-5.6,1.6-11.4,2.5-17.3,2.8c-4,0.2-8,0.2-11.9,0c-3.7-0.2-7.4-0.7-11-1.4
	c-4.4-0.9-8.7-2.1-12.7-4c-2.6-1.2-5-2.7-7.1-4.8c-1.6-1.6-2.8-3.4-3.3-5.6C34.6,111.6,34.6,111.2,34.4,110.8z M75.6,56.9
	c3.5,0,7.6-0.3,11.7-0.9c3.6-0.5,7.2-1.3,10.6-2.4c2.6-0.9,5.1-1.9,7.3-3.5c1-0.7,2-1.5,2.7-2.6c0.7-1.1,0.7-2.1,0-3.1
	c-0.3-0.4-0.6-0.9-1-1.2c-1.5-1.4-3.2-2.4-5.1-3.3c-4.2-2-8.7-3.1-13.3-3.8c-3.9-0.6-7.9-1-11.9-1c-4.6-0.1-9.2,0.2-13.8,0.8
	c-3.5,0.5-7,1.2-10.4,2.4c-2.7,0.9-5.2,1.9-7.5,3.5c-1,0.7-2,1.6-2.7,2.6c-0.7,1-0.6,2,0,3c0.5,0.9,1.3,1.5,2.1,2.2
	c1.9,1.4,4,2.4,6.1,3.3c4.6,1.8,9.4,2.8,14.3,3.4C68.1,56.7,71.6,56.9,75.6,56.9z M41.7,62.4c0,1.7,0,3.4,0,5c0,0.6,0.2,1.2,0.5,1.8
	c0.5,0.9,1.3,1.6,2.1,2.2c1.8,1.4,3.9,2.4,6.1,3.3c4.7,1.8,9.5,2.8,14.5,3.4c3.1,0.4,6.1,0.5,9.2,0.6c3.1,0,6.3-0.1,9.4-0.4
	c3.5-0.3,6.9-0.9,10.3-1.7c3.4-0.8,6.8-2,9.9-3.7c1.5-0.8,2.9-1.8,3.9-3.2c0.5-0.7,0.8-1.5,0.8-2.4c0-3.3,0-6.6,0-10
	c0-0.1,0-0.2,0-0.3c0-0.3-0.1-0.3-0.3-0.1c-0.4,0.3-0.9,0.5-1.3,0.8c-3.7,2-7.7,3.3-11.8,4.3c-6,1.4-12.1,2.1-18.3,2.2
	c-3.8,0.1-7.7-0.1-11.5-0.5c-3.6-0.4-7.2-0.9-10.7-1.8c-4.4-1.1-8.7-2.6-12.6-4.9c-0.3-0.2-0.3,0-0.3,0.2
	C41.7,58.9,41.7,60.7,41.7,62.4z M108.4,84.2c0-1.8,0-3.5,0-5.3c0-0.1,0.1-0.3,0-0.3c-0.1-0.1-0.2,0.1-0.3,0.1
	c-2.2,1.4-4.6,2.4-7.1,3.3c-4.3,1.5-8.7,2.5-13.2,3.1c-3.7,0.5-7.4,0.8-11.1,0.8c-3.8,0.1-7.5-0.1-11.2-0.5c-3.6-0.4-7.3-1-10.8-1.8
	c-4.4-1.1-8.7-2.6-12.5-4.9c-0.4-0.2-0.3,0-0.3,0.2c0,3.5,0,6.9,0,10.4c0,0.2,0,0.4,0.1,0.5c0.2,1,0.8,1.7,1.5,2.3
	c1.5,1.4,3.2,2.4,5,3.3c3.4,1.6,7,2.6,10.7,3.3c4,0.8,8,1.2,12.1,1.4c4,0.2,8,0.1,12-0.3c3-0.3,6-0.7,9-1.3
	c3.7-0.8,7.4-1.9,10.8-3.6c1.6-0.8,3.2-1.8,4.4-3.2c0.7-0.7,1.2-1.6,1.2-2.6C108.4,87.5,108.4,85.9,108.4,84.2z M108.4,100.3
	c-0.1,0.1-0.2,0.1-0.3,0.1c-1.6,1-3.2,1.8-4.9,2.5c-2.9,1.2-5.9,2.1-8.9,2.8c-2.3,0.5-4.7,1-7.1,1.3c-1.5,0.2-3,0.3-4.5,0.5
	c-1.5,0.1-2.9,0.2-4.4,0.3c-2.4,0-4.7,0.1-7.1,0c-0.9,0-1.8-0.1-2.7-0.1c-1.1-0.1-2.2-0.2-3.3-0.3c-3.6-0.4-7.2-1-10.7-1.8
	c-4.4-1.1-8.6-2.6-12.5-4.9c-0.1,0-0.1-0.1-0.2,0c0,0.1,0,0.1,0,0.2c0,3.1,0,6.2,0,9.2c0,0.2,0,0.3,0.1,0.5c0.2,1,0.8,1.7,1.5,2.3
	c1.5,1.5,3.2,2.5,5.1,3.3c3.4,1.6,7,2.6,10.6,3.3c2.3,0.5,4.6,0.8,6.9,1.1c1.2,0.1,2.4,0.2,3.6,0.3c1.3,0.1,2.5,0.1,3.8,0.1
	c1.8,0,3.7,0,5.5-0.1c1.1,0,2.2-0.1,3.3-0.2c1.6-0.1,3.1-0.3,4.7-0.5c1.8-0.3,3.6-0.6,5.4-1c3.9-0.9,7.8-2.1,11.3-4
	c1.4-0.8,2.8-1.7,3.8-3c0.6-0.7,0.9-1.5,0.9-2.5c0-2.9,0-5.8,0-8.7C108.4,100.6,108.4,100.5,108.4,100.3z"/>
<path class="st3" d="M108.4,84.2c0,1.6,0,3.3,0,4.9c0,1.1-0.5,1.9-1.2,2.6c-1.2,1.4-2.8,2.4-4.4,3.2c-3.4,1.7-7.1,2.8-10.8,3.6
	c-3,0.6-6,1.1-9,1.3c-4,0.4-8,0.4-12,0.3C67,100.1,63,99.6,59,98.8c-3.7-0.7-7.3-1.8-10.7-3.3c-1.8-0.9-3.6-1.8-5-3.3
	c-0.7-0.7-1.3-1.4-1.5-2.3c0-0.2-0.1-0.4-0.1-0.5c0-3.5,0-6.9,0-10.4c0-0.2-0.1-0.5,0.3-0.2c3.9,2.4,8.1,3.8,12.5,4.9
	c3.6,0.9,7.2,1.5,10.8,1.8c3.7,0.4,7.5,0.5,11.2,0.5c3.7-0.1,7.4-0.3,11.1-0.8c4.5-0.6,8.9-1.6,13.2-3.1c2.5-0.9,4.9-1.9,7.1-3.3
	c0.1-0.1,0.2-0.2,0.3-0.1c0.1,0.1,0,0.2,0,0.3C108.4,80.7,108.4,82.5,108.4,84.2z"/>
<path class="st3" d="M108.4,100.3c0,0.2,0,0.3,0,0.5c0,2.9,0,5.8,0,8.7c0,1-0.3,1.8-0.9,2.5c-1,1.3-2.4,2.2-3.8,3
	c-3.6,2-7.4,3.2-11.3,4c-1.8,0.4-3.6,0.7-5.4,1c-1.6,0.2-3.1,0.4-4.7,0.5c-1.1,0.1-2.2,0.2-3.3,0.2c-1.8,0.1-3.7,0.1-5.5,0.1
	c-1.3,0-2.5-0.1-3.8-0.1c-1.2-0.1-2.4-0.1-3.6-0.3c-2.3-0.3-4.6-0.6-6.9-1.1c-3.7-0.7-7.2-1.7-10.6-3.3c-1.9-0.9-3.6-1.9-5.1-3.3
	c-0.7-0.7-1.3-1.4-1.5-2.3c0-0.2-0.1-0.3-0.1-0.5c0-3.1,0-6.2,0-9.2c0-0.1,0-0.1,0-0.2c0.1-0.1,0.2,0,0.2,0
	c3.9,2.4,8.1,3.8,12.5,4.9c3.5,0.9,7.1,1.5,10.7,1.8c1.1,0.1,2.2,0.2,3.3,0.3c0.9,0.1,1.8,0.1,2.7,0.1c2.4,0.1,4.7,0.1,7.1,0
	c1.5,0,2.9-0.1,4.4-0.3c1.5-0.1,3-0.3,4.5-0.5c2.4-0.3,4.7-0.7,7.1-1.3c3.1-0.7,6-1.6,8.9-2.8c1.7-0.7,3.3-1.5,4.9-2.5
	C108.2,100.3,108.2,100.3,108.4,100.3z"/>
</svg>
