<?xml version="1.0" encoding="utf-8"?>
<!-- Generator: Adobe Illustrator 21.0.0, SVG Export Plug-In . SVG Version: 6.00 Build 0)  -->
<svg version="1.1" id="Layer_1" xmlns="http://www.w3.org/2000/svg" xmlns:xlink="http://www.w3.org/1999/xlink" x="0px" y="0px"
	 viewBox="0 0 150 150" style="enable-background:new 0 0 150 150;" xml:space="preserve">
<style type="text/css">
	.st0{fill:#A3C5E8;}
	.st1{fill:#f5b324;}
</style>
<path class="st0" d="M71.9,31.6C71.9,31.6,71.9,31.6,71.9,31.6c0.7-0.1,1.4-0.1,2.1-0.1C73.3,31.7,72.6,31.6,71.9,31.6z"/>
<path class="st0" d="M78.2,31.6C78.2,31.6,78.2,31.6,78.2,31.6c-0.7,0.1-1.4,0.1-2.1,0C76.8,31.6,77.5,31.6,78.2,31.6z"/>
<g>
	<path class="st1" d="M56.3,121H57c2.8,0,5-2.2,5-5V70.1c0-2.7-2.2-5-5-5h-0.6c-2.8,0-5,2.2-5,5V116C51.3,118.8,53.6,121,56.3,121z"
		/>
	<path class="st1" d="M76.3,121H77c2.8,0,5-2.2,5-5V70.1c0-2.7-2.2-5-5-5h-0.6c-2.8,0-5,2.2-5,5V116C71.3,118.8,73.6,121,76.3,121z"
		/>
	<path class="st1" d="M75,0C33.6,0,0,33.6,0,75c0,41.4,33.6,75,75,75s75-33.6,75-75C150,33.6,116.4,0,75,0z M109.3,117.9
		c0,8.7-7.1,15.8-15.8,15.8H58.8c-8.7,0-15.8-7.1-15.8-15.8V54h66.2V117.9z M117.8,47.3c-0.8,2.4-3.4,3.7-5.8,2.8L47.1,27.8
		c-2.4-0.8-3.7-3.4-2.8-5.8c0.8-2.4,3.4-3.7,5.8-2.8l21.8,7.5c0-0.5,0.1-0.9,0.2-1.4c1.2-4.2,7.2-6.1,13.3-4.3s10.1,6.6,8.8,10.8
		c-0.2,0.8-0.7,1.5-1.2,2.2l22,7.6C117.3,42.3,118.6,44.9,117.8,47.3z"/>
	<path class="st1" d="M95,121h0.6c2.8,0,5-2.2,5-5V70.1c0-2.7-2.2-5-5-5H95c-2.8,0-5,2.2-5,5V116C90,118.8,92.3,121,95,121z"/>
</g>
</svg>
