<?xml version="1.0" encoding="utf-8"?>
<!-- Generator: Adobe Illustrator 21.0.1, SVG Export Plug-In . SVG Version: 6.00 Build 0)  -->
<svg version="1.1" id="Layer_1" xmlns="http://www.w3.org/2000/svg" xmlns:xlink="http://www.w3.org/1999/xlink" x="0px" y="0px"
	 viewBox="0 0 150 150" style="enable-background:new 0 0 150 150;" xml:space="preserve">
<style type="text/css">
	.st0{fill:#A3C5E8;}
	.st1{fill:#f5b324;}
</style>
<path class="st0" d="M71.9,31.6C71.9,31.6,71.9,31.6,71.9,31.6c0.7-0.1,1.4-0.1,2.1-0.1C73.3,31.7,72.6,31.6,71.9,31.6z"/>
<path class="st0" d="M78.2,31.6C78.2,31.6,78.2,31.6,78.2,31.6c-0.7,0.1-1.4,0.1-2.1,0C76.8,31.6,77.5,31.6,78.2,31.6z"/>
<path class="st1" d="M75.3,0c-41.4,0-75,33.6-75,75c0,41.4,33.6,75,75,75c41.4,0,75-33.6,75-75C150.3,33.6,116.8,0,75.3,0z
	 M62.7,109.4c0,5.3-4.4,9.7-9.7,9.7s-9.7-4.3-9.7-9.7V40.6c0-5.3,4.4-9.7,9.7-9.7s9.7,4.4,9.7,9.7V109.4z M107.3,109.4
	c0,5.3-4.3,9.7-9.7,9.7c-5.3,0-9.7-4.3-9.7-9.7V40.6c0-5.3,4.3-9.7,9.7-9.7c5.3,0,9.7,4.4,9.7,9.7V109.4z"/>
</svg>
