<?xml version="1.0" encoding="utf-8"?>
<!-- Generator: Adobe Illustrator 20.1.0, SVG Export Plug-In . SVG Version: 6.00 Build 0)  -->
<svg version="1.1" id="Layer_1" xmlns="http://www.w3.org/2000/svg" xmlns:xlink="http://www.w3.org/1999/xlink" x="0px" y="0px"
	 viewBox="0 0 150 150" style="enable-background:new 0 0 150 150;" xml:space="preserve">
<style type="text/css">
	.st0{fill:#f5b324;}
	.st1{fill:#FFFFFF;}
</style>
<circle class="st0" cx="74.6" cy="75.6" r="74.8"/>
<path class="st1" d="M79,88.3h-6.7c-6.6,0-12-5.4-12-12V38.3c0-6.6,5.4-12,12-12H79c6.6,0,12,5.4,12,12v37.9
	C91,82.9,85.6,88.3,79,88.3z"/>
<path class="st1" d="M79,126.6h-6.7c-6.6,0-12-5.4-12-12v-5.1c0-6.6,5.4-12,12-12H79c6.6,0,12,5.4,12,12v5.1
	C91,121.2,85.6,126.6,79,126.6z"/>
</svg>
