<?xml version="1.0" encoding="utf-8"?>
<!-- Generator: Adobe Illustrator 18.1.0, SVG Export Plug-In . SVG Version: 6.00 Build 0)  -->
<svg version="1.1" id="Layer_1" xmlns="http://www.w3.org/2000/svg" xmlns:xlink="http://www.w3.org/1999/xlink" x="0px" y="0px"
	 viewBox="0 0 614.34766 612.44806" enable-background="new 0 0 614.34766 612.44806" xml:space="preserve">
<path fill="#78C5E1" d="M600.9823,381.8334c-33.00568,132.60263-153.76758,226.94382-295.99796,226.94382
	c-142.87445,0-262.59677-99.92526-294.24991-233.07501c38.06124,0,73.64295,0.17386,90.16193,0.17386
	c7.79251,0,9.30585,0.13519,9.75671,0.10297c12.42942-0.61182,28.01463-4.71417,38.38316-29.92737l39.51031-103.3544
	l87.74686,211.96136c7.88922,16.84088,21.05939,16.34235,28.91617,16.34235h0.74075c15.32755,0,21.99313-6.06546,27.82144-17.17474
	l99.11362-209.19763l33.81073,93.95074l2.06088,4.47043c7.14847,15.6817,12.29089,31.12793,29.9819,33.15204
	c3.64682,0.41727,45.99695-0.3443,103.08868-0.3443C601.82758,375.85751,601.82794,376.20206,600.9823,381.8334z"/>
<path fill="#F46E5D" d="M610.66547,303.59476c0,1.57779,0,5.40622-0.03223,5.40622h-0.06451h-91.12659l-53.16467-148.37183
	c-4.7334-11.04482-11.84982-27.53249-32.58707-27.53249c-12.6871,0-24.15051,10.513-30.65512,27.80475l-96.37665,223.2552
	l-92.77017-221.87485c-9.08061-19.7068-15.35959-28.97061-33.52083-28.97061c-12.33292,0-21.3813,4.54521-31.23471,27.8907
	l-55.0631,150.28307l-91.48227-0.09525c-0.06446-2.28632-0.0965-4.57184-0.0965-6.85815
	c0-167.05717,135.43608-302.14041,302.49329-302.14041S610.66547,136.53757,610.66547,303.59476z"/>
</svg>
