<?xml version="1.0" encoding="UTF-8"?><svg id="a" xmlns="http://www.w3.org/2000/svg" viewBox="0 0 90 30"><g id="b"><rect x=".8" y="1.7" width="29.9" height="26.4" style="fill:#dee3e8; stroke-width:0px;"/><path d="M5.4,24.5h0v-5.7c0-.3.3-.6.6-.6s.6.3.6.6h0v5.7c0,.3-.3.6-.6.6s-.6-.3-.6-.6Z" style="fill:#154a66; stroke-width:0px;"/><path d="M3.5,23.2c0-.1,0-.2.1-.3.2-.3.6-.4.8-.2l1.6,1.1,1.6-1.1c.3-.2.7-.1.8.2.2.3.1.7-.2.8l-1.8,1.3c-.2.1-.5.1-.7,0l-2-1.3c-.2-.1-.2-.3-.2-.5Z" style="fill:#154a66; stroke-width:0px;"/><path d="M6,12.5c-1.4,0-2.6-1.2-2.6-2.6s1.2-2.6,2.6-2.6,2.6,1.2,2.6,2.6-1.1,2.6-2.6,2.6ZM6,8.5c-.8,0-1.4.6-1.4,1.4s.6,1.4,1.4,1.4,1.4-.6,1.4-1.4-.6-1.4-1.4-1.4Z" style="fill:#154a66; stroke-width:0px;"/><path d="M6,19.3c-1.4,0-2.6-1.2-2.6-2.6s1.2-2.6,2.6-2.6,2.6,1.2,2.6,2.6-1.1,2.6-2.6,2.6ZM6,15.3c-.8,0-1.4.6-1.4,1.4s.6,1.4,1.4,1.4,1.4-.6,1.4-1.4-.6-1.4-1.4-1.4Z" style="fill:#154a66; stroke-width:0px;"/><path d="M5.4,5c0-.2.3-.4.6-.4s.6.2.6.4v2.9c0,.2-.3.4-.6.4s-.6-.2-.6-.4v-2.9h0Z" style="fill:#154a66; stroke-width:0px;"/><path d="M5.3,11.8c0-.2.3-.4.6-.4s.6.2.6.4v2.9c0,.2-.3.4-.6.4s-.6-.2-.6-.4v-2.9h0Z" style="fill:#154a66; stroke-width:0px;"/><path d="M13.7,16.2h-2.7c-.5,0-.8-.4-.8-.8h0c0-.5.4-.8.8-.8h2.8c.5,0,.8.4.8.8h0c0,.4-.4.8-.9.8Z" style="fill:#258dc1; stroke-width:0px;"/><path d="M21.3,18.8h-10.5c-.4,0-.7-.3-.7-.7v-.2c0-.4.3-.7.7-.7h10.4c.4,0,.7.3.7.7v.2c.1.4-.2.7-.6.7Z" style="fill:#b43535; stroke-width:0px;"/><path d="M23.3,16.1h-7.3c-.5,0-.8-.4-.8-.8h0c0-.5.4-.8.8-.8h7.3c.5,0,.8.4.8.8h0c.1.4-.3.8-.8.8Z" style="fill:#154a66; stroke-width:0px;"/><path d="M13.7,9.3h-2.8c-.5,0-.8-.4-.8-.8h0c0-.5.4-.8.8-.8h2.8c.5,0,.8.4.8.8h0c0,.4-.3.8-.8.8Z" style="fill:#154a66; stroke-width:0px;"/><path d="M19.4,9.2h-3.4c-.5,0-.8-.4-.8-.8h0c0-.5.4-.8.8-.8h3.4c.5,0,.8.4.8.8h0c0,.4-.3.8-.8.8Z" style="fill:#b43535; stroke-width:0px;"/><path d="M22,9.2h-.6c-.3,0-.5-.2-.5-.5v-.6c0-.3.2-.5.5-.5h.6c.3,0,.5.2.5.5v.6c0,.3-.2.5-.5.5Z" style="fill:#154a66; stroke-width:0px;"/><path d="M26.7,9.1h-2.7c-.5,0-.8-.4-.8-.8h0c0-.5.4-.8.8-.8h2.8c.5,0,.8.4.8.8h0c0,.5-.4.8-.9.8Z" style="fill:#258dc1; stroke-width:0px;"/><path d="M21.6,12h3.2c.5,0,.8-.4.8-.8h0c0-.5-.4-.8-.8-.8h-3.2c-.5,0-.8.4-.8.8h0c0,.4.4.8.8.8Z" style="fill:#154a66; stroke-width:0px;"/><path d="M10.9,11.9h8.3c.5,0,.8-.4.8-.8h0c0-.5-.4-.8-.8-.8h-8.3c-.5,0-.8.4-.8.8h0c0,.4.3.8.8.8Z" style="fill:#154a66; stroke-width:0px;"/></g><path d="M37.14,20.88c-.19-.2-.29-.46-.29-.78v-9.69c0-.32.1-.58.29-.77.19-.19.45-.29.77-.29s.59.1.78.29c.19.19.29.45.29.77v9.69c0,.32-.1.58-.29.78-.19.2-.45.3-.78.3s-.58-.1-.77-.3Z" style="fill:#154a66; stroke:#154a66; stroke-miterlimit:10; stroke-width:.25px;"/><path d="M44.53,11.44c-.23.27-.35.67-.35,1.19v.38h1.4c.62,0,.92.26.92.78s-.31.78-.92.78h-1.4v5.63c0,.32-.1.56-.29.73s-.44.25-.73.25-.54-.08-.74-.25c-.2-.17-.3-.41-.3-.73v-5.63h-.83c-.62,0-.92-.26-.92-.78s.31-.78.92-.78h.83v-.12c0-1.03.27-1.85.82-2.44.54-.59,1.31-.92,2.3-1l.43-.03c.44-.03.75.01.93.14s.27.32.27.59c0,.47-.27.74-.81.79l-.43.03c-.51.03-.88.19-1.11.46Z" style="fill:#154a66; stroke:#154a66; stroke-miterlimit:10; stroke-width:.25px;"/><path d="M49.17,22.1c-.14.1-.3.15-.48.15-.22,0-.42-.07-.59-.22s-.26-.34-.26-.57c0-.1.02-.2.05-.3l3.83-12c.07-.21.17-.36.31-.46.14-.1.3-.15.48-.15.22,0,.42.07.59.22.17.15.26.34.26.57,0,.1-.02.2-.05.3l-3.83,12c-.07.21-.17.36-.31.46Z" style="fill:#154a66; stroke:#154a66; stroke-miterlimit:10; stroke-width:.25px;"/><path d="M61.75,19.08c.12.14.17.34.17.58,0,.34-.2.63-.61.86-.37.21-.8.38-1.27.5-.47.13-.92.19-1.35.19-1.3,0-2.33-.37-3.09-1.12-.76-.75-1.14-1.77-1.14-3.07,0-.83.17-1.56.5-2.2.33-.64.79-1.13,1.4-1.49.6-.35,1.28-.53,2.04-.53s1.36.16,1.9.48c.54.32.96.77,1.25,1.35.3.58.45,1.27.45,2.06,0,.47-.21.71-.63.71h-4.87c.07.76.28,1.32.64,1.68s.89.54,1.58.54c.35,0,.66-.04.93-.13.27-.09.58-.21.92-.36.33-.18.57-.26.73-.26.19,0,.34.07.45.21ZM57.1,14.79c-.33.35-.54.86-.6,1.52h3.73c-.02-.67-.19-1.18-.5-1.53-.31-.35-.74-.52-1.29-.52s-1.01.18-1.35.53Z" style="fill:#154a66; stroke:#154a66; stroke-miterlimit:10; stroke-width:.25px;"/><path d="M64.21,20.92c-.19-.17-.29-.42-.29-.73v-9.85c0-.32.1-.56.29-.73.19-.17.44-.25.73-.25s.54.08.74.25c.2.17.3.41.3.73v9.85c0,.32-.1.56-.3.73-.2.17-.45.26-.74.26s-.54-.08-.73-.26Z" style="fill:#154a66; stroke:#154a66; stroke-miterlimit:10; stroke-width:.25px;"/><path d="M68.38,20.5c-.35-.21-.53-.51-.53-.89,0-.22.06-.4.18-.54s.27-.21.45-.21c.19,0,.45.09.78.26.35.17.67.29.96.38.29.09.66.13,1.11.13s.82-.08,1.08-.23c.26-.15.39-.37.39-.64,0-.19-.05-.34-.16-.45-.1-.11-.29-.21-.56-.31-.27-.09-.68-.2-1.23-.32-.98-.2-1.68-.48-2.1-.84s-.64-.86-.64-1.5c0-.48.14-.92.43-1.31.29-.39.68-.69,1.18-.91.5-.21,1.07-.32,1.71-.32.46,0,.91.06,1.34.17.43.12.81.28,1.16.5.35.22.53.51.53.88,0,.22-.06.4-.18.55s-.27.22-.45.22c-.12,0-.24-.02-.36-.07-.12-.05-.26-.12-.44-.22-.32-.17-.59-.29-.83-.37-.23-.08-.52-.12-.86-.12-.41,0-.73.08-.97.25-.24.17-.35.39-.35.68s.12.48.36.63.71.29,1.4.43c.74.15,1.31.33,1.73.53.42.2.72.45.9.74.18.3.27.68.27,1.14,0,.75-.31,1.35-.93,1.8-.62.45-1.45.68-2.48.68-1.2,0-2.17-.24-2.91-.71Z" style="fill:#154a66; stroke:#154a66; stroke-miterlimit:10; stroke-width:.25px;"/><path d="M83.46,19.08c.12.14.17.34.17.58,0,.34-.2.63-.61.86-.37.21-.8.38-1.27.5-.47.13-.92.19-1.35.19-1.3,0-2.33-.37-3.09-1.12-.76-.75-1.14-1.77-1.14-3.07,0-.83.17-1.56.5-2.2.33-.64.79-1.13,1.4-1.49.6-.35,1.28-.53,2.04-.53s1.36.16,1.9.48c.54.32.96.77,1.25,1.35.3.58.45,1.27.45,2.06,0,.47-.21.71-.63.71h-4.87c.07.76.28,1.32.64,1.68s.89.54,1.58.54c.35,0,.66-.04.93-.13.27-.09.58-.21.92-.36.33-.18.57-.26.73-.26.19,0,.34.07.45.21ZM78.81,14.79c-.33.35-.54.86-.6,1.52h3.73c-.02-.67-.19-1.18-.5-1.53-.31-.35-.74-.52-1.29-.52s-1.01.18-1.35.53Z" style="fill:#154a66; stroke:#154a66; stroke-miterlimit:10; stroke-width:.25px;"/></svg>