<?xml version="1.0" encoding="utf-8"?>
<!-- Generator: Adobe Illustrator 27.2.0, SVG Export Plug-In . SVG Version: 6.00 Build 0)  -->
<svg version="1.1" id="Layer_1" xmlns="http://www.w3.org/2000/svg" xmlns:xlink="http://www.w3.org/1999/xlink" x="0px" y="0px"
	 viewBox="0 0 90 30" style="enable-background:new 0 0 90 30;" xml:space="preserve">
<style type="text/css">
	.st0{display:none;}
	.st1{display:inline;fill:#154A66;}
	.st2{fill:#DEE3E8;}
	.st3{fill:#154A66;}
	.st4{fill:#258DC1;}
	.st5{fill:#B43535;}
</style>
<g id="Layer_4">
	<g class="st0">
		<path class="st1" d="M36.1,6.2h1.4l1.7,5.3L41,6.2h1.1l1.8,5.3l1.7-5.3h1.3l-2.5,7.2h-1.1l-1.8-5.1l-1.8,5.1h-1.1L36.1,6.2z"/>
		<path class="st1" d="M47.5,8h1.2v1.2c0.3-0.8,1-1.4,1.9-1.3v1.3h-0.1c-1.1,0-1.8,0.7-1.8,2.1v2h-1.2L47.5,8L47.5,8z"/>
		<path class="st1" d="M51.7,6H53v1.2h-1.3V6z M51.8,8H53v5.4h-1.2V8z"/>
		<path class="st1" d="M54.9,11.9V9h-0.7V8h0.7V6.5h1.2V8h1.4v1h-1.4v2.6c0,0.5,0.2,0.7,0.7,0.7c0.3,0,0.5-0.1,0.8-0.2v1
			c-0.3,0.2-0.6,0.3-1.1,0.3C55.5,13.5,54.9,13.1,54.9,11.9z"/>
		<path class="st1" d="M58.3,10.7L58.3,10.7c0-1.6,1.1-2.8,2.6-2.8c1.7,0,2.6,1.3,2.6,2.9c0,0.1,0,0.2,0,0.3h-3.9
			c0.1,0.9,0.8,1.4,1.5,1.4c0.6,0,1-0.2,1.5-0.6l0.7,0.6c-0.5,0.6-1.2,1-2.2,1C59.5,13.5,58.3,12.4,58.3,10.7z M62.3,10.3
			c-0.1-0.8-0.5-1.4-1.4-1.4c-0.8,0-1.3,0.6-1.4,1.4H62.3z"/>
		<path class="st1" d="M39,16.1h1.4l3.1,7.2h-1.6l-0.7-1.6h-3l-0.7,1.6H36L39,16.1z M40.7,20.3l-1-2.3l-0.9,2.3H40.7z"/>
		<path class="st1" d="M44.4,21.8v-2.6h-0.7v-1.3h0.7v-1.4h1.5v1.4h1.3v1.3h-1.3v2.3c0,0.4,0.2,0.5,0.5,0.5s0.5-0.1,0.8-0.2V23
			c-0.3,0.2-0.7,0.3-1.2,0.3C45,23.4,44.4,23,44.4,21.8z"/>
		<path class="st1" d="M48.6,21.8v-2.6H48v-1.3h0.7v-1.4h1.5v1.4h1.3v1.3h-1.3v2.3c0,0.4,0.2,0.5,0.5,0.5s0.5-0.1,0.8-0.2V23
			c-0.3,0.2-0.7,0.3-1.2,0.3C49.3,23.4,48.6,23,48.6,21.8z"/>
		<path class="st1" d="M52.6,17.9h1.5V19c0.3-0.8,0.8-1.2,1.7-1.2v1.6h-0.1c-1,0-1.7,0.6-1.7,1.9v2h-1.5L52.6,17.9L52.6,17.9z"/>
		<path class="st1" d="M56.9,15.9h1.6v1.4h-1.6V15.9z M56.9,17.9h1.5v5.5h-1.5V17.9z"/>
		<path class="st1" d="M61.5,22.6v0.7H60v-7.4h1.5v2.8c0.4-0.5,0.9-0.9,1.7-0.9c1.3,0,2.5,1,2.5,2.8l0,0c0,1.8-1.2,2.8-2.5,2.8
			C62.3,23.4,61.8,23,61.5,22.6z M64.1,20.6L64.1,20.6c0-0.9-0.6-1.5-1.3-1.5s-1.3,0.6-1.3,1.5l0,0c0,0.9,0.6,1.5,1.3,1.5
			S64.1,21.5,64.1,20.6z"/>
		<path class="st1" d="M66.8,21.4v-3.5h1.5v3c0,0.7,0.3,1.1,0.9,1.1s1-0.4,1-1.1v-3h1.5v5.5h-1.5v-0.8c-0.4,0.5-0.8,0.9-1.6,0.9
			C67.4,23.4,66.8,22.6,66.8,21.4z"/>
		<path class="st1" d="M73.4,21.8v-2.6h-0.7v-1.3h0.7v-1.4h1.5v1.4h1.3v1.3h-1.3v2.3c0,0.4,0.2,0.5,0.5,0.5s0.5-0.1,0.8-0.2V23
			c-0.3,0.2-0.7,0.3-1.2,0.3C74,23.4,73.4,23,73.4,21.8z"/>
		<path class="st1" d="M76.9,20.6L76.9,20.6c0-1.6,1.1-2.9,2.7-2.9c1.8,0,2.7,1.4,2.7,3c0,0.1,0,0.3,0,0.4h-3.8
			c0.2,0.7,0.6,1.1,1.3,1.1c0.5,0,0.9-0.2,1.3-0.6l0.9,0.8c-0.5,0.6-1.2,1-2.2,1C78.2,23.4,76.9,22.3,76.9,20.6z M80.8,20.2
			c-0.1-0.7-0.5-1.2-1.2-1.2c-0.6,0-1.1,0.5-1.2,1.2H80.8z"/>
		<path class="st1" d="M83,22.6l0.7-1c0.6,0.4,1.2,0.7,1.7,0.7c0.4,0,0.7-0.2,0.7-0.4l0,0c0-0.3-0.5-0.4-1.1-0.6
			c-0.8-0.2-1.6-0.6-1.6-1.6l0,0c0-1.1,0.9-1.7,2-1.7c0.7,0,1.4,0.2,2,0.6l-0.6,1.1c-0.5-0.3-1.1-0.5-1.5-0.5s-0.6,0.2-0.6,0.4l0,0
			c0,0.3,0.5,0.4,1.1,0.7c0.8,0.3,1.6,0.6,1.6,1.6l0,0c0,1.2-0.9,1.8-2.1,1.8C84.6,23.4,83.7,23.2,83,22.6z"/>
	</g>
	<g>
		<rect x="0.8" y="1.7" class="st2" width="29.9" height="26.4"/>
		<g>
			<g>
				<g>
					<g>
						<g>
							<path class="st3" d="M5.4,24.5L5.4,24.5v-5.7c0-0.3,0.3-0.6,0.6-0.6c0.3,0,0.6,0.3,0.6,0.6l0,0v5.7c0,0.3-0.3,0.6-0.6,0.6
								C5.7,25.1,5.4,24.8,5.4,24.5z"/>
						</g>
						<g>
							<path class="st3" d="M3.5,23.2c0-0.1,0-0.2,0.1-0.3c0.2-0.3,0.6-0.4,0.8-0.2L6,23.8l1.6-1.1c0.3-0.2,0.7-0.1,0.8,0.2
								c0.2,0.3,0.1,0.7-0.2,0.8L6.4,25c-0.2,0.1-0.5,0.1-0.7,0l-2-1.3C3.5,23.6,3.5,23.4,3.5,23.2z"/>
						</g>
					</g>
					<g>
						<path class="st3" d="M6,12.5c-1.4,0-2.6-1.2-2.6-2.6S4.6,7.3,6,7.3s2.6,1.2,2.6,2.6S7.5,12.5,6,12.5z M6,8.5
							c-0.8,0-1.4,0.6-1.4,1.4c0,0.8,0.6,1.4,1.4,1.4s1.4-0.6,1.4-1.4S6.8,8.5,6,8.5z"/>
					</g>
					<g>
						<path class="st3" d="M6,19.3c-1.4,0-2.6-1.2-2.6-2.6s1.2-2.6,2.6-2.6s2.6,1.2,2.6,2.6S7.5,19.3,6,19.3z M6,15.3
							c-0.8,0-1.4,0.6-1.4,1.4c0,0.8,0.6,1.4,1.4,1.4s1.4-0.6,1.4-1.4S6.8,15.3,6,15.3z"/>
					</g>
					<g>
						<path class="st3" d="M5.4,5c0-0.2,0.3-0.4,0.6-0.4c0.3,0,0.6,0.2,0.6,0.4v2.9c0,0.2-0.3,0.4-0.6,0.4c-0.3,0-0.6-0.2-0.6-0.4V5
							L5.4,5z"/>
					</g>
					<g>
						<path class="st3" d="M5.3,11.8c0-0.2,0.3-0.4,0.6-0.4c0.3,0,0.6,0.2,0.6,0.4v2.9c0,0.2-0.3,0.4-0.6,0.4
							c-0.3,0-0.6-0.2-0.6-0.4V11.8L5.3,11.8z"/>
					</g>
					<path class="st4" d="M13.7,16.2H11c-0.5,0-0.8-0.4-0.8-0.8l0,0c0-0.5,0.4-0.8,0.8-0.8h2.8c0.5,0,0.8,0.4,0.8,0.8l0,0
						C14.6,15.8,14.2,16.2,13.7,16.2z"/>
					<path class="st5" d="M21.3,18.8H10.8c-0.4,0-0.7-0.3-0.7-0.7v-0.2c0-0.4,0.3-0.7,0.7-0.7h10.4c0.4,0,0.7,0.3,0.7,0.7v0.2
						C22,18.5,21.7,18.8,21.3,18.8z"/>
					<path class="st3" d="M23.3,16.1H16c-0.5,0-0.8-0.4-0.8-0.8l0,0c0-0.5,0.4-0.8,0.8-0.8h7.3c0.5,0,0.8,0.4,0.8,0.8l0,0
						C24.2,15.7,23.8,16.1,23.3,16.1z"/>
					<path class="st3" d="M13.7,9.3h-2.8c-0.5,0-0.8-0.4-0.8-0.8l0,0c0-0.5,0.4-0.8,0.8-0.8h2.8c0.5,0,0.8,0.4,0.8,0.8l0,0
						C14.5,8.9,14.2,9.3,13.7,9.3z"/>
					<path class="st5" d="M19.4,9.2H16c-0.5,0-0.8-0.4-0.8-0.8l0,0c0-0.5,0.4-0.8,0.8-0.8h3.4c0.5,0,0.8,0.4,0.8,0.8l0,0
						C20.2,8.8,19.9,9.2,19.4,9.2z"/>
					<path class="st3" d="M22,9.2h-0.6c-0.3,0-0.5-0.2-0.5-0.5V8.1c0-0.3,0.2-0.5,0.5-0.5H22c0.3,0,0.5,0.2,0.5,0.5v0.6
						C22.5,9,22.3,9.2,22,9.2z"/>
					<path class="st4" d="M26.7,9.1H24c-0.5,0-0.8-0.4-0.8-0.8l0,0c0-0.5,0.4-0.8,0.8-0.8h2.8c0.5,0,0.8,0.4,0.8,0.8l0,0
						C27.6,8.8,27.2,9.1,26.7,9.1z"/>
					<path class="st3" d="M21.6,12h3.2c0.5,0,0.8-0.4,0.8-0.8l0,0c0-0.5-0.4-0.8-0.8-0.8h-3.2c-0.5,0-0.8,0.4-0.8,0.8l0,0
						C20.8,11.6,21.2,12,21.6,12z"/>
					<path class="st3" d="M10.9,11.9h8.3c0.5,0,0.8-0.4,0.8-0.8l0,0c0-0.5-0.4-0.8-0.8-0.8h-8.3c-0.5,0-0.8,0.4-0.8,0.8l0,0
						C10.1,11.5,10.4,11.9,10.9,11.9z"/>
				</g>
			</g>
		</g>
	</g>
</g>
<g>
	<path class="st3" d="M37.7,21c-0.3,0-0.5-0.1-0.7-0.3s-0.3-0.4-0.3-0.8v-9.6c0-0.3,0.1-0.5,0.3-0.8c0.1-0.1,0.4-0.3,0.7-0.3
		s0.4,0,0.5,0.1c0.1,0.1,0.3,0.3,0.4,0.4l6.2,8.1h-0.4v-7.6c0-0.3,0.1-0.5,0.3-0.7c0.1-0.1,0.4-0.3,0.7-0.3s0.5,0.1,0.7,0.3
		s0.3,0.4,0.3,0.7v9.8c0,0.3-0.1,0.5-0.3,0.7C46,20.9,45.7,21,45.4,21s-0.4,0-0.5-0.1c-0.1-0.1-0.3-0.3-0.5-0.4l-6.2-8.1h0.4v7.7
		c0,0.3-0.1,0.5-0.3,0.8C38.2,20.9,38,21,37.7,21z"/>
	<path class="st3" d="M52.6,21c-0.9,0-1.6-0.1-2.3-0.5c-0.7-0.3-1.2-0.8-1.5-1.5c-0.4-0.7-0.5-1.4-0.5-2.2c0-0.8,0.1-1.5,0.5-2.2
		c0.4-0.7,0.8-1.1,1.4-1.5c0.5-0.4,1.4-0.5,2-0.5c0.5,0,1.1,0.1,1.5,0.3c0.4,0.1,0.8,0.4,1.2,0.8c0.3,0.4,0.5,0.8,0.7,1.2
		c0.1,0.5,0.3,1.1,0.3,1.6c0,0.1,0,0.4-0.1,0.4c-0.1,0.1-0.3,0.1-0.5,0.1h-5.3v-1.2h4.6l-0.3,0.3c0-0.5-0.1-0.9-0.3-1.2
		c-0.1-0.3-0.4-0.5-0.7-0.8c-0.3-0.3-0.7-0.3-1.1-0.3s-0.8,0.1-1.2,0.3c-0.3,0.3-0.5,0.5-0.7,0.9c-0.1,0.4-0.3,0.8-0.3,1.4v0.1
		c0,0.9,0.3,1.5,0.7,2c0.4,0.4,1.1,0.7,1.9,0.7c0.3,0,0.5,0,0.9-0.1s0.7-0.1,0.9-0.4c0.3-0.1,0.4-0.1,0.5-0.1c0.1,0,0.3,0.1,0.4,0.1
		c0.1,0,0.1,0.3,0.1,0.4c0,0.1,0,0.3-0.1,0.5c-0.1,0.3-0.3,0.3-0.4,0.4c-0.4,0.3-0.8,0.4-1.4,0.5C53.4,21,53,21,52.6,21z"/>
	<path class="st3" d="M60.5,21c-0.4,0-0.9,0-1.5-0.1s-0.9-0.3-1.4-0.5c-0.1-0.1-0.3-0.3-0.4-0.4c-0.1-0.1-0.1-0.3-0.1-0.4
		c0-0.1,0.1-0.3,0.1-0.4c0.1-0.1,0.3-0.1,0.4-0.3c0.1,0,0.3,0,0.5,0.1c0.4,0.3,0.8,0.4,1.2,0.4c0.4,0.1,0.8,0.1,1.1,0.1
		c0.5,0,0.9-0.1,1.2-0.3s0.4-0.4,0.4-0.7c0-0.3-0.1-0.4-0.3-0.5c-0.1-0.1-0.4-0.3-0.8-0.3l-1.6-0.3c-0.7-0.1-1.2-0.4-1.5-0.7
		c-0.3-0.3-0.5-0.8-0.5-1.4c0-0.5,0.1-0.9,0.4-1.4c0.3-0.4,0.7-0.7,1.2-0.8c0.5-0.3,1.1-0.3,1.8-0.3c0.5,0,0.9,0,1.4,0.1
		c0.4,0.1,0.8,0.3,1.2,0.5c0.1,0.1,0.3,0.1,0.3,0.4c0,0.3,0.1,0.3,0,0.4c0,0.1-0.1,0.3-0.1,0.4c0,0.1-0.3,0.1-0.4,0.3
		c-0.1,0-0.3,0-0.5-0.1c-0.3-0.1-0.7-0.3-0.9-0.4s-0.5-0.1-0.9-0.1c-0.5,0-0.9,0.1-1.2,0.3c-0.3,0.1-0.4,0.4-0.4,0.7
		s0.1,0.4,0.3,0.5c0.1,0.1,0.4,0.3,0.7,0.3l1.6,0.3c0.7,0.1,1.2,0.4,1.6,0.7c0.4,0.4,0.5,0.8,0.5,1.4c0,0.8-0.3,1.4-0.9,1.9
		C62.1,21,61.4,21,60.5,21z"/>
	<path class="st3" d="M69,21c-0.7,0-1.4-0.1-1.8-0.4s-0.8-0.5-1.1-1.1c-0.3-0.5-0.4-1.1-0.4-1.8v-3.5H65c-0.3,0-0.4,0-0.5-0.1
		c-0.1-0.1-0.3-0.3-0.3-0.5c0-0.3,0.1-0.4,0.3-0.5c0.1-0.1,0.4-0.1,0.5-0.1h0.8v-1.5c0-0.3,0.1-0.5,0.3-0.8s0.4-0.3,0.8-0.3
		c0.3,0,0.5,0.1,0.8,0.3s0.3,0.4,0.3,0.8v1.5h1.8c0.3,0,0.4,0,0.5,0.1c0.1,0.1,0.3,0.3,0.3,0.5c0,0.3-0.1,0.4-0.3,0.5
		c-0.1,0.1-0.4,0.1-0.5,0.1h-1.8v3.4c0,0.5,0.1,0.9,0.4,1.2c0.3,0.3,0.5,0.4,1.1,0.4c0.1,0,0.4,0,0.5,0s0.3,0,0.4,0
		c0.1,0,0.3,0,0.3,0.1c0.1,0.1,0.1,0.3,0.1,0.5c0,0.3,0,0.4-0.1,0.5c-0.1,0.1-0.1,0.3-0.4,0.4c-0.1,0-0.3,0.1-0.5,0.1S69.2,21,69,21
		z"/>
	<path class="st3" d="M75.4,21c-0.9,0-1.6-0.1-2.3-0.5c-0.7-0.3-1.2-0.8-1.5-1.5c-0.3-0.7-0.5-1.4-0.5-2.2c0-0.8,0.1-1.5,0.5-2.2
		c0.4-0.7,0.8-1.1,1.4-1.5c0.5-0.4,1.4-0.5,2-0.5c0.5,0,1.1,0.1,1.5,0.3c0.4,0.1,0.8,0.4,1.2,0.8c0.3,0.4,0.5,0.8,0.7,1.2
		c0.1,0.5,0.3,1.1,0.3,1.6c0,0.1,0,0.4-0.1,0.4c-0.1,0.1-0.3,0.1-0.5,0.1h-5.3v-1.2h4.6L77,16.4c0-0.5-0.1-0.9-0.3-1.2
		c-0.1-0.3-0.4-0.5-0.7-0.8c-0.3-0.3-0.7-0.3-1.1-0.3c-0.4,0-0.8,0.1-1.2,0.3c-0.3,0.3-0.5,0.5-0.7,0.9c-0.1,0.4-0.3,0.8-0.3,1.4
		v0.1c0,0.9,0.3,1.5,0.7,2c0.4,0.4,1.1,0.7,1.9,0.7c0.3,0,0.5,0,0.9-0.1c0.4-0.1,0.7-0.1,0.9-0.4c0.3-0.1,0.4-0.1,0.5-0.1
		c0.1,0,0.3,0.1,0.4,0.1c0.1,0,0.1,0.3,0.1,0.4c0,0.1,0,0.3-0.1,0.5c-0.1,0.3-0.3,0.3-0.4,0.4c-0.4,0.3-0.8,0.4-1.4,0.5
		C76.4,21,75.9,21,75.4,21z"/>
	<path class="st3" d="M83.4,21c-0.7,0-1.4-0.1-1.9-0.5c-0.5-0.3-0.9-0.8-1.2-1.5c-0.3-0.7-0.4-1.4-0.4-2.2c0-0.8,0.1-1.6,0.4-2.2
		c0.3-0.5,0.7-1.1,1.2-1.5c0.5-0.3,1.1-0.5,1.9-0.5c0.7,0,1.2,0.1,1.8,0.5c0.5,0.3,0.8,0.8,0.9,1.2H86v-4.1c0-0.3,0.1-0.5,0.3-0.8
		c0.1-0.3,0.4-0.3,0.8-0.3c0.4,0,0.5,0.1,0.8,0.3s0.3,0.4,0.3,0.8v9.6c0,0.3-0.1,0.5-0.3,0.8C87.7,21,87.5,21,87.1,21
		c-0.4,0-0.5-0.1-0.8-0.3C86,20.6,86,20.3,86,19.9v-1.2l0.1,0.5c-0.1,0.5-0.5,0.9-0.9,1.4C84.8,21,84.1,21,83.4,21z M83.9,19.5
		c0.4,0,0.8-0.1,1.1-0.3c0.3-0.1,0.5-0.5,0.7-0.8c0.1-0.3,0.3-0.8,0.3-1.5c0-0.8-0.1-1.5-0.5-1.9c-0.4-0.4-0.8-0.7-1.5-0.7
		c-0.4,0-0.8,0.1-1.1,0.3c-0.3,0.1-0.5,0.5-0.7,0.8c-0.1,0.4-0.3,0.8-0.3,1.5c0,0.8,0.1,1.5,0.5,1.9C82.9,19.2,83.4,19.5,83.9,19.5z
		"/>
</g>
</svg>
